/* XPM */
static char *akonversation__x__[] = {
/* columns rows colors chars-per-pixel */
"32 32 117 2",
"   c #000101",
".  c #040609",
"X  c #060A0D",
"o  c #0B0D0E",
"O  c #070C11",
"+  c #090E12",
"@  c #0C1116",
"#  c #0D141B",
"$  c #141414",
"%  c #11171C",
"&  c gray10",
"*  c #0F1720",
"=  c #0E1921",
"-  c #141C25",
";  c #131E2A",
":  c #162027",
">  c #17212C",
",  c #18242D",
"<  c #192634",
"1  c #1B2934",
"2  c #1C2B3B",
"3  c gray14",
"4  c #2D2D2D",
"5  c #343434",
"6  c #3E3E3E",
"7  c #1E2E40",
"8  c #213445",
"9  c #2A3645",
"0  c #233449",
"q  c #233A4C",
"w  c #383D42",
"e  c #253C52",
"r  c #293D55",
"t  c #293F58",
"y  c #254257",
"u  c #25445A",
"i  c #2B415C",
"p  c #394757",
"a  c #3A495A",
"s  c #2E4562",
"d  c #2A4B66",
"f  c #314A67",
"g  c #334C6C",
"h  c #2F516C",
"j  c #344F70",
"k  c #2D577A",
"l  c #365273",
"z  c #3A5779",
"x  c #345B7D",
"c  c #3B5A7D",
"v  c #3E617D",
"b  c gray26",
"n  c #4A4A4A",
"m  c #535353",
"M  c #5B5B5C",
"N  c #4B5A6C",
"B  c #515963",
"V  c #52657B",
"C  c #646464",
"Z  c #6D6D6D",
"A  c #666F79",
"S  c #687077",
"D  c #65717F",
"F  c #747474",
"G  c #7A7A7A",
"H  c #305B83",
"J  c #3F5E84",
"K  c #2A6285",
"L  c #41638A",
"P  c #446892",
"I  c #476C99",
"U  c #477297",
"Y  c #6C7B8B",
"T  c #707E91",
"R  c #6A819A",
"E  c #758496",
"W  c #7C8895",
"Q  c #77879A",
"!  c #7D8B9C",
"~  c #758DA7",
"^  c #7F91A4",
"/  c #848484",
"(  c #8E8E8E",
")  c gray59",
"_  c #999999",
"`  c #8594A4",
"'  c #8594A8",
"]  c #8F9EAE",
"[  c #909EAF",
"{  c #8F9DB1",
"}  c #94A3B3",
"|  c #A2A2A2",
" . c #ACACAC",
".. c #A1ABB8",
"X. c #B6B6B6",
"o. c #BBBBBB",
"O. c #9EADC1",
"+. c #A2AFC0",
"@. c #ABB6C3",
"#. c #ABB8C6",
"$. c #AAB7C8",
"%. c #ACBACB",
"&. c #B4C0CC",
"*. c #C2C2C2",
"=. c #CCCCCC",
"-. c #C2CCD7",
";. c #CFD2D6",
":. c #D4D4D4",
">. c #D7D9DC",
",. c #DBDBDB",
"<. c #CDD6E2",
"1. c #E4E4E4",
"2. c #EBEBEB",
"3. c #E8EBF1",
"4. c #F4F4F4",
"5. c #FDFDFD",
"6. c None",
/* pixels */
"6.6.6.6.6.6.6.6.6.6.6.6.6.6.6.6.6.6.6.6.6.6.6.6.6.6.6.6.6.6.6.6.",
"6.6.6.6.6.6.6.6.6.6.6.6.6.6.6.6.6.6.6.6.6.6.6.6.6.6.6.6.6.6.6.6.",
"6.6.6.6.6.6.6.6.6.6.6.    n _ X.o.o.X.) C 3 6.6.6.6.6.6.6.6.6.6.",
"6.6.6.6.6.6.6.6.6.  b ) =.=.=.o.o.o.*.*.=.:.*.Z . 6.6.6.6.6.6.6.",
"6.6.6.6.6.6.6.  n o.=.o.X.o.X.X.o.X.X.X.X.X.X.o.o.M 6.6.6.6.6.6.",
"6.6.6.6.6.6.  F *. . . . . . . . . . . . . . . . .X.G   6.6.6.6.",
"6.6.6.6.6.$ )  .| | | | | | | | | | | | | | | | | _  .Z   6.6.6.",
"6.6.6.6.. _ _ _ _ _ _ _ _ _ _ ) _ ) _ ) ) ) ) ) _ _ _ _ m 6.6.6.",
"6.6.6.  C ) ( ( ( ) ( ( ( ( ) ( ( ( ( ( ( Y { W ( ( ( ( G   6.6.",
"6.6.6.& ( / / / / / / / / / / / / / Y ' %.5.5.%./ / / / / 4   6.",
"6.6.  C G G G G G / G G G G G S E } 3.5.5.5.5.%.F G F G G M   6.",
"6.6.$ G S F F Z ` ` ` ` ' ! } <.5.5.5.5.5.5.5.%.Z Z Z Z Z M   6.",
"6.  5 Z C C S $.5.5.5.5.5.,.5.5.5.5.5.5.5.5.5.$.C C C C C n     ",
"6.  5 M M M [ 5.5.5.5.5.5.,.5.5.5.5.5.5.5.5.5.@.B m M 6 $       ",
"6.  3 m m m } 5.5.5.5.5.5.,.5.5.5.5.5.5.5.5.5.:...4 o . .       ",
"6.  $ n n n ] 5.5.5.5.5.5.,.5.5.4.5.5.5.5.5.4.=...- , - %       ",
"6.  . o & 3 Y 5.4.5.5.5.5.>.4.5.5.4.5.4.4.4.4.` s 0 2 , o       ",
"6.. . o X X # N :.2.2.2.2.=.2.2.2.2.2.2.2.4.4.^ y 0 1 @         ",
"6.  @ : 1 2 q u h v @.2.,.H U ~ ,.1.1.2.2.2.2.^ 0 1 X       . 6.",
"6.6.  % , 2 8 y u d &.2.,.k K K x R @.,.1.1.1.^ :         . % 6.",
"6.6.    # : 1 2 8 0 -.2.:.s u y e q q V ' ,.1.E         X - 6.6.",
"6.6.6.    o @ % - : #.2.[ < , : : - % @ @ 9 A 9       O > 2 6.6.",
"6.6.6.              @ a - . .                     O - < 0 6.6.6.",
"6.6.6.6.                                    . o ; 7 e t 6.6.6.6.",
"6.6.6.6.6.$                         . . O - < 0 r f s 6.6.6.6.6.",
"6.6.6.6.n 4       . X + + @ @ + * ; < 7 0 t s l J t 6.6.6.6.6.6.",
"6.6.6.4 6       + * ; < 2 7 7 0 e t s g l J P L e 6.6.6.6.6.6.6.",
"6.6.M w @ * , 7 0 0 2 0 s t s g j c J I I L f 6.6.6.6.6.6.6.6.6.",
"6.p z P L J c j 6.6.6.6.6.q s f g j j 6.6.6.6.6.6.6.6.6.6.6.6.6.",
"6.6.6.6.6.6.6.6.6.6.6.6.6.6.6.6.6.6.6.6.6.6.6.6.6.6.6.6.6.6.6.6.",
"6.6.6.6.6.6.6.6.6.6.6.6.6.6.6.6.6.6.6.6.6.6.6.6.6.6.6.6.6.6.6.6.",
"6.6.6.6.6.6.6.6.6.6.6.6.6.6.6.6.6.6.6.6.6.6.6.6.6.6.6.6.6.6.6.6."
};
