/* XPM */
static char *akonversation__x__[] = {
/* columns rows colors chars-per-pixel */
"16 16 126 2",
"   c black",
".  c #010101",
"X  c #010103",
"o  c #020203",
"O  c #020303",
"+  c #020305",
"@  c #030507",
"#  c #040505",
"$  c gray2",
"%  c #040507",
"&  c #050607",
"*  c #040508",
"=  c #05060B",
"-  c #05080B",
";  c #06080A",
":  c #070A0C",
">  c #060A0F",
",  c #0A0A0C",
"<  c #0C0F12",
"1  c #0E1317",
"2  c #0C141B",
"3  c #0E151D",
"4  c #0D151E",
"5  c #0F161F",
"6  c #121416",
"7  c #141E2A",
"8  c #19212A",
"9  c #172332",
"0  c #192732",
"q  c #1A2732",
"w  c #182833",
"e  c #1B2833",
"r  c #1B293C",
"t  c gray16",
"y  c #292A2A",
"u  c #2F2F2F",
"i  c gray19",
"p  c #313131",
"a  c #3C3C3C",
"s  c #3F3F3F",
"d  c #1E2E41",
"f  c #203342",
"g  c #233C4E",
"h  c #263A51",
"j  c #263A52",
"k  c #243E52",
"l  c #254258",
"z  c #254358",
"x  c #2E465C",
"c  c #2D455F",
"v  c #2F4664",
"b  c #2B4D6B",
"n  c #355172",
"m  c #375375",
"M  c #38567A",
"N  c #3A567B",
"B  c #434343",
"V  c #4C4C4C",
"C  c gray30",
"Z  c #565656",
"A  c #5B5B5B",
"S  c #5C5C5E",
"D  c #4B5B6B",
"F  c #53647A",
"G  c gray38",
"H  c #646464",
"J  c #727272",
"K  c gray45",
"L  c #747475",
"P  c #767676",
"I  c #46759C",
"U  c #607082",
"Y  c #607084",
"T  c #737E8C",
"R  c #727E8D",
"E  c #75808F",
"W  c #6F8197",
"Q  c #768190",
"!  c #6F8AA3",
"~  c #7891A9",
"^  c #818181",
"/  c gray53",
"(  c #898989",
")  c gray54",
"_  c gray56",
"`  c #929292",
"'  c #939393",
"]  c gray61",
"[  c #9D9D9D",
"{  c gray62",
"}  c #8C99A8",
"|  c #8F9EB2",
" . c #95A2B3",
".. c #96A3B3",
"X. c #95A2B4",
"o. c #9CA6B5",
"O. c #A2A2A2",
"+. c #AEAEAE",
"@. c gray69",
"#. c #B1B1B1",
"$. c #B2B2B2",
"%. c #B7B7B7",
"&. c gray72",
"*. c #B0BDCE",
"=. c #B7C1CC",
"-. c #B5C0CF",
";. c #BCC7D5",
":. c #C0CAD7",
">. c #C0CBDA",
",. c #CCD1D5",
"<. c gray90",
"1. c #E6E6E6",
"2. c gray91",
"3. c #EDEFEF",
"4. c #EEEEEE",
"5. c gray95",
"6. c #F3F3F3",
"7. c gray96",
"8. c #F6F6F6",
"9. c #F5F7F9",
"0. c #FBFBFB",
"q. c gray99",
"w. c #FDFDFD",
"e. c #FEFEFE",
"r. c gray100",
"t. c None",
/* pixels */
"t.t.t.t.t.t.t.t.t.t.t.t.t.t.t.t.",
"t.t.t.t.t.A _ $.&.+.` L t.t.t.t.",
"t.t.t.a O.%.$.$.$.$.$.$.] a t.t.",
"t.t.B ] O.] ] ] ] ] ] ] ] ` t t.",
"t.t.^ ) ) ) ) ) ( R X.X.) / V t.",
"t.a L L T Q T } *.9.r.;.K K H   ",
"t.a H  .r.r.4.r.r.r.r.;.S Z u   ",
"t.p C -.r.r.<.0.0.0.0.<.D < &   ",
"t.& 6 U 3.8.<.9.6.6.5.o.z e +   ",
"t., e g b -.! I ~ ,.2. .w     * ",
"t.  1 w f ;.Q z k x Y F     7 t.",
"t.t.    O 8 * &       * 4 r t.t.",
"t.t.p     + * * > 4 9 j v t.t.t.",
"t.t , - 4 7 d j x m N M t.t.t.t.",
"t.t.n t.t.t.t.t.t.t.t.t.t.t.t.t.",
"t.t.t.t.t.t.t.t.t.t.t.t.t.t.t.t."
};
